<?xml version="1.0" encoding="UTF-8"?>
<svg xmlns="http://www.w3.org/2000/svg" viewBox="0 0 247.2 114.54">
  <defs>
    <style>
      .cls-1 {
        fill: #909373;
      }

      .cls-2 {
        fill: #f3e1ca;
      }

      .cls-3 {
        fill: none;
      }

      .cls-4 {
        fill: #585825;
      }

      .cls-5 {
        fill: #3f3d3d;
      }

      .cls-6 {
        fill: #f16a23;
      }

      .cls-7 {
        fill: #754c24;
      }
    </style>
  </defs>
  <g id="Sides">
    <path class="cls-1" d="M1.76,86.59c-.01-.18-.23-.22-.23-.22.18.08.23.22.23.22Z"/>
    <path class="cls-1" d="M.51,88.58c.28,0,.41.16.41.16-.12-.23-.41-.16-.41-.16Z"/>
    <path class="cls-4" d="M.64,89.35s.03.03.03.05c0,0-.01-.02-.03-.05Z"/>
    <path class="cls-1" d="M246.74,63.91c-.37-.78-.98-1.2-1.8-1.28-.79-.08-1.43.24-1.93.96-.49.72-.77,1.58-.85,2.58-.08,1,.09,1.85.49,2.56.41.71,1.01,1.1,1.8,1.18.39.03.76-.05,1.08-.25s.61-.47.84-.8c.24-.33.42-.7.55-1.13.13-.43.21-.87.25-1.31.08-.89-.06-1.73-.44-2.51ZM245.23,66.63c-.03.11-.08.2-.14.28-.06.08-.13.15-.21.2-.08.05-.17.07-.27.06-.2-.02-.35-.12-.45-.29-.1-.18-.14-.39-.12-.64.02-.25.09-.46.21-.64.12-.18.28-.26.48-.24.21.02.36.12.45.32.09.19.13.4.11.63,0,.11-.03.22-.06.33Z"/>
    <path class="cls-1" d="M4.6,83.91c-.37-.78-.98-1.2-1.8-1.28-.79-.08-1.43.24-1.93.96-.49.72-.77,1.58-.85,2.58-.08,1,.09,1.85.49,2.56.41.71,1.01,1.1,1.8,1.18.39.03.76-.05,1.08-.25s.61-.47.84-.8c.24-.33.42-.7.55-1.13.13-.43.21-.87.25-1.31.08-.89-.06-1.73-.44-2.51ZM3.09,86.63c-.03.11-.08.2-.14.28-.06.08-.13.15-.21.2-.08.05-.17.07-.27.06-.2-.02-.35-.12-.45-.29-.1-.18-.14-.39-.12-.64.02-.25.09-.46.21-.64.12-.18.28-.26.48-.24.21.02.36.12.45.32.09.19.13.4.11.63,0,.11-.03.22-.06.33Z"/>
  </g>
  <g id="Stick">
    <path class="cls-7" d="M188.36,75.95l-15.9,2.21-10.06,1.4-2.48.34-17.11,2.38-10.1,1.4-36.26,5.04s-.07-.02-.11-.03c-.8-.18-1.43-1.52-2.05-2.12-8.8-8.63-34.61-4.53-45.97.62-15.29,6.93-17.48,18.32.77,21.3,12.89,2.11,32.43-1.37,42.38-9.43.56-.44,1.2-.82,1.73-1.34.65-.64,1.84-2.54,2.57-2.68l.57-.09,36.38-6.03,11.37-1.89,12.4-2.05,5.85-.97,10.93-1.81,13.85-2.29c.93-1.24,1.64-2.37,2.38-3.7.09-.15.17-.3.25-.45l-1.39.19ZM88.37,95.36c-1.55,1.01-3.36,1.22-4.91,2.02-1.27.65-1.63,1.68-2.78,2.41-4.66,3-10.36,2.25-15.5,3.41-3.48.79-4.39,1.83-8.42,1.72-6.18-.17-9.24-1.13-13.51-4.42-1.66-1.27-2.78-2.22-2.08-4.31,1.16-3.46,7.03-3.27,9.91-4.94,2.51-1.46,2.64-2.15,6.06-2.96,2.97-.71,5.52-.42,8.33-.89,3.61-.61,10.31-2.81,13.63-1.73,3.5,1.14,3.74.6,7.18.91,5.41.5,6.22,6.09,2.09,8.78Z"/>
    <path class="cls-2" d="M86.28,86.58c-3.44-.31-3.68.23-7.18-.91-3.32-1.08-10.02,1.12-13.63,1.73-2.81.47-5.36.18-8.33.89-3.42.81-3.55,1.5-6.06,2.96-2.88,1.67-8.75,1.48-9.91,4.94-.7,2.09.42,3.04,2.08,4.31,4.27,3.29,7.33,4.25,13.51,4.42,4.03.11,4.94-.93,8.42-1.72,5.14-1.16,10.84-.41,15.5-3.41,1.15-.73,1.51-1.76,2.78-2.41,1.55-.8,3.36-1.01,4.91-2.02,4.13-2.69,3.32-8.28-2.09-8.78Z"/>
    <path class="cls-7" d="M236.12,69.32l-2.52.35-7.16.99-9.13,1.27-10.25,1.43-2.96.41-7.87,1.09c-.37,1.1-.82,2.28-1.33,3.53-.03.08-.07.17-.11.25l8.21-1.36,4.16-.69,10.24-1.7,7.28-1.21,7.66-1.26,4.5-.75c.84-.73,1.22-2.09-.72-2.35Z"/>
    <path class="cls-5" d="M73.08,96.61s.7-.28,1.01-.87c.24-.46-.19-.72-.19-.72,0,0-.46-.2-.69.26-.31.6-.12,1.33-.12,1.33Z"/>
    <path class="cls-5" d="M70.96,93.04s-.46-.59-1.13-.72c-.51-.1-.63.39-.63.39,0,0-.06.5.45.59.66.12,1.31-.26,1.31-.26Z"/>
    <path class="cls-5" d="M77.73,91.43s-.41.63-.31,1.3c.07.51.57.47.57.47,0,0,.49-.11.41-.62-.1-.67-.67-1.15-.67-1.15Z"/>
    <path class="cls-5" d="M65.21,92.54s-.18-.73-.73-1.12c-.42-.29-.74.09-.74.09,0,0-.26.43.17.72.55.38,1.3.3,1.3.3Z"/>
    <path class="cls-5" d="M74.44,89.35s-.63.41-.82,1.06c-.14.5.33.67.33.67,0,0,.49.1.63-.39.18-.65-.14-1.33-.14-1.33Z"/>
    <path class="cls-5" d="M54.97,96.58s.68-.32.96-.93c.21-.47-.23-.71-.23-.71,0,0-.47-.17-.68.3-.27.61-.04,1.33-.04,1.33Z"/>
    <path class="cls-5" d="M58.78,92.08s-.5-.57-1.17-.65c-.51-.06-.61.42-.61.42,0,0-.03.5.48.56.67.08,1.29-.34,1.29-.34Z"/>
    <path class="cls-5" d="M56.76,97.47s-.37.66-.24,1.31c.1.51.6.44.6.44,0,0,.48-.13.38-.64-.14-.66-.74-1.11-.74-1.11Z"/>
    <path class="cls-5" d="M61.73,95.67s.74-.17,1.13-.71c.3-.42-.08-.74-.08-.74,0,0-.42-.26-.73.16-.39.54-.32,1.3-.32,1.3Z"/>
    <path class="cls-5" d="M69.2,97.61s-.37-.66-1-.88c-.49-.17-.68.29-.68.29,0,0-.13.48.36.65.63.22,1.33-.06,1.33-.06Z"/>
    <path class="cls-5" d="M63.48,97.76s-.5.56-.51,1.24c0,.52.49.55.49.55,0,0,.5-.03.5-.55,0-.67-.49-1.24-.49-1.24Z"/>
    <path class="cls-5" d="M68.3,90.82s.35-.67.19-1.32c-.12-.5-.62-.42-.62-.42,0,0-.47.15-.35.65.16.65.78,1.08.78,1.08Z"/>
    <path class="cls-5" d="M51.99,97.3s-.18-.73-.73-1.12c-.42-.29-.74.09-.74.09,0,0-.26.43.17.72.55.38,1.3.3,1.3.3Z"/>
  </g>
  <g id="Ajeen">
    <path class="cls-1" d="M120.19,90.99l8.55-1.42c-.04,1.86-.07,3.65-.09,5.38-.05,3.27-.09,6.09-.13,8.47-.05,2.38.02,3.99-.07,4.83-.18,1.81-.53,2.66-1.78,4.04-1.12,1.25-2.99,1.86-4.46,2.09-1.48.23-2.85.21-3.99-.15-1.32-.42-2.28-1.19-2.78-1.58-1.66-1.3-6.22-7.48-6.72-9.92-.19-.92.27-2.15.95-2.6,1.53-1.01,3.28-.58,3.98.49.86,1.3,1.85,3.26,3.89,4.73,1.65,1.18,2.04-.13,2.31-2.05.29-2.01.37-4.73.37-6.55,0-1.84-.02-3.8-.05-5.76Z"/>
    <path class="cls-1" d="M129.19,73.39c.13-3.64.31-7.05.54-10.22.22-3.17.42-5.74.6-7.7.09-1.12-.36-1.96-1.34-2.52-.98-.56-2.1-.82-3.35-.77-1.25.05-2.41.37-3.48.98-1.07.61-1.61,1.47-1.61,2.59-.09,2.05-.16,4.67-.2,7.84-.05,3.17-.09,6.6-.17,10.38-.08,3.71-.04,7.54-.04,11.45l8.72-1.21c.09-3.65.2-7.26.33-10.82Z"/>
    <path class="cls-1" d="M132.71,47.81c1.79-1.14,2.74-2.73,2.85-4.79.05-1.03-.2-1.95-.76-2.78-.56-.82-1.28-1.52-2.15-2.1-.87-.58-1.86-1.01-2.99-1.3-1.12-.29-2.27-.46-3.43-.51-2.32-.11-4.47.36-6.45,1.41-1.97,1.05-3.01,2.64-3.12,4.8-.11,2.06.79,3.69,2.71,4.88,1.92,1.2,4.17,1.84,6.76,1.94,2.59.1,4.79-.42,6.58-1.55Z"/>
    <path class="cls-1" d="M188.5,86.87c.11-1.99.11-4.39,0-7.19v-.12c-.02-.52-.04-1.04-.06-1.56-.4.64-.83,1.26-1.32,1.91-.27.36-.56.73-.87,1.11-1.3,1.61-2.5,2.98-4.11,3.95-.64.38-1.78,1.2-2.79,1.36-.69.1-2.41.05-3.49-.55-.82-.45-1.03-.89-1.54-1.62l-1.05-1.96-10.93,1.81c0,.37.02.73.05,1.09.06.89.14,1.75.26,2.58.34,2.55.98,4.82,2.33,6.58,1.78,2.33,6.34,3.8,9.56,3.8,2.67,0,5.12-.93,7.17-2.36,2.41-1.67,4.06-3.1,5.76-4.92.48-.51.94-1.04,1.37-1.59-.29-.65-.4-1.42-.34-2.32Z"/>
    <path class="cls-1" d="M187,63.69c-.13-2.15-.65-4.25-1.54-6.3s-2.16-3.85-3.82-5.39c-1.65-1.54-3.54-2.31-5.68-2.31s-4.27,1.17-6.1,3.5c-1.83,2.34-3.34,5.27-4.55,8.82-1.2,3.55-2.01,7.35-2.41,11.41-.03.26-.05.52-.07.78-.18,1.81-.34,3.61-.43,5.36l10.06-1.4c-.13-1.3-.17-2.6.01-3.97.99-.09,2.12-.23,3.42-.42,1.29-.19,2.56-.49,3.81-.91,1.25-.42,2.41-.96,3.48-1.61,1.08-.65,1.97-1.49,2.68-2.52.89-1.21,1.27-2.89,1.14-5.04ZM179.3,63.2c-.09,1.08-.31,1.89-.67,2.45-.45.75-1.16,1.24-2.14,1.47-.98.24-1.96.35-2.94.35.62-2.99,1.29-5.53,2-7.63.72-2.1,1.39-3.29,2.01-3.57.36-.19.69.09,1.01.84.31.75.53,1.68.66,2.8.14,1.12.16,2.22.07,3.29Z"/>
    <path class="cls-1" d="M162.39,85.1c-.03-.36-.05-.72-.05-1.09l-5.85.97c-1.27,1.56-2.46,2.89-4.03,3.84-.63.38-1.77,1.2-2.78,1.36-.69.1-2.41.05-3.5-.55-.82-.45-1.02-.89-1.53-1.62-.34-.49-.44-.73-.56-.98-.07-.14-.15-.29-.28-.5-.21-.31-.73-2.07-.83-2.84-.07-.47-.12-.94-.17-1.41-.15-1.38-.2-2.78,0-4.24.98-.09,2.12-.23,3.42-.42,1.29-.19,2.56-.49,3.81-.91s2.41-.96,3.48-1.61c1.07-.65,1.96-1.49,2.68-2.52.89-1.21,1.27-2.89,1.14-5.04-.14-2.15-.65-4.25-1.54-6.3-.9-2.05-2.17-3.85-3.82-5.39-1.65-1.54-3.55-2.31-5.69-2.31s-4.26,1.17-6.09,3.5c-1.83,2.33-3.34,5.27-4.55,8.82-1.2,3.55-2.01,7.35-2.41,11.41-.21,2.17-.42,4.32-.52,6.41-.09,1.81-.11,3.57.01,5.24v.03c.26,3.6.8,6.82,2.59,9.16,1.78,2.33,6.34,3.8,9.56,3.8,2.67,0,5.12-.93,7.17-2.36,2.41-1.67,4.06-3.1,5.76-4.92,1.69-1.82,3.14-3.83,4.35-6.02.17-.31.34-.62.5-.93-.12-.83-.2-1.69-.26-2.58ZM145.88,63.69c.71-2.1,1.38-3.29,2.01-3.57.36-.19.69.09,1,.84.32.75.54,1.68.67,2.8.14,1.12.16,2.22.07,3.29-.09,1.07-.31,1.89-.67,2.45-.45.75-1.16,1.24-2.14,1.47-.98.23-1.97.35-2.95.35.63-2.99,1.3-5.53,2.01-7.63Z"/>
    <path class="cls-1" d="M162.4,79.56l-3.28.45c1.14-1.69,2.11-3.24,2.93-4.57.27-.44.55-.89.78-1.24-.18,1.81-.34,3.61-.43,5.36Z"/>
    <path class="cls-1" d="M235.87,63.16c-.33,1.62-1.08,3.78-2.27,6.51-.03.09-.07.17-.11.26-.37.84-.75,1.67-1.15,2.49-.98,2-2.08,3.96-3.28,5.89-1.71,2.74-3.58,5.14-5.63,7.22-2.04,2.08-4.03,3.12-5.96,3.12-3.3,0-5.66-.92-7.07-2.76-1.43-1.84-2.36-3.93-2.82-6.24-.2-1.03-.34-2.05-.42-3.06l10.24-1.7c.06.87.14,1.68.24,2.44.22,1.72.62,2.59,1.19,2.59.68,0,1.59-.66,2.73-1.97,1.04-1.19,2.08-2.61,3.12-4.27.1-.15.2-.3.29-.45.51-.83,1-1.69,1.47-2.57.59-1.07,1.15-2.17,1.68-3.31.96-2.08,1.67-3.89,2.13-5.44.23-1.07.71-1.78,1.45-2.14.73-.35,1.45-.47,2.13-.35.68.12,1.25.51,1.7,1.16.45.65.57,1.51.34,2.58Z"/>
    <path class="cls-1" d="M218.15,55.85c-.91-.83-2.11-1.27-3.58-1.33-1.48-.06-3.01.24-4.6.89-1.59.65-2.84,1.57-3.75,2.76-1.25,1.78-2.47,3.95-3.66,6.51-1.2,2.55-2.25,5.43-3.16,8.64-.11-1.19-.08-2.7.09-4.54.17-1.85.42-3.81.76-5.89.35-2.07.71-4.15,1.11-6.23.4-2.08.71-3.95.94-5.62.23-1.78-.29-3.09-1.53-3.92-1.26-.83-2.7-1.19-4.35-1.07-1.65.12-3.27.78-4.86,1.96-1.59,1.19-2.55,2.97-2.89,5.35-.46,2.38-.69,5.05-.69,8.02s.06,6.03.18,9.18c.06,1.85.13,3.64.2,5.39.02.69.05,1.37.08,2.05.02.52.04,1.04.06,1.56v.12c.11,2.8.11,5.2,0,7.19-.06.9.05,1.67.34,2.32.28.65.74,1.19,1.36,1.6,1.25.83,2.64,1.24,4.18,1.24s2.95-.38,4.26-1.15c1.3-.78,2.07-1.93,2.3-3.48.11-1.43.39-3.18.85-5.26.36-1.67.77-3.3,1.21-4.86.1-.37.21-.74.32-1.11.25-.85.51-1.65.78-2.4.33-.94.67-1.8,1.01-2.59.62-1.42,1.22-2.25,1.79-2.49.23.59.28,1.99.17,4.18-.01.16-.01.32-.01.49l10.25-1.43c0-.22,0-.44,0-.66,0-2.32.14-4.6.42-6.86.29-2.26.6-3.92.94-4.99.57-1.54.4-2.73-.51-3.57Z"/>
    <path class="cls-1" d="M113.21,68.47c-1.01-.73-2.09-1.33-3.22-1.79-.82-.35-1.38-1.18-1.43-2.15-.23-3.91-.65-8.08-1.25-12.49-.69-5.04-1.72-10.02-3.08-14.93-1.36-4.92-3.04-9.63-5.06-14.15-2.02-4.51-4.46-8.49-7.31-11.94-2.86-3.45-6.19-6.18-10.02-8.18-.46-.24-.93-.46-1.4-.67C76.98.63,73.14-.09,68.94,0c-3.66.09-7.06.81-10.21,2.16-1.14.48-2.25,1.05-3.33,1.7-4.06,2.46-7.71,5.7-10.97,9.73-3.25,4.04-6.11,8.61-8.57,13.72-2.47,5.12-4.62,10.39-6.45,15.82s-3.33,10.82-4.5,16.18c-.99,4.56-1.81,8.74-2.44,12.54-.18,1.14-1.08,1.96-2.14,1.99l-1.42.03-1.77.04c-.86.02-1.81.13-2.86.32-.91.16-1.74.38-2.51.62-.11.04-.23.06-.34.1-.85.3-1.56.67-2.13,1.12-.56.46-.84.96-.82,1.51.01.55.33,1.01.96,1.38s1.36.68,2.18.93c.81.26,1.63.43,2.45.52.81.1,1.46.13,1.94.12l2.48-.05c1.24-.03,2.28,1.05,2.31,2.41,0,.77.03,1.54.05,2.31.06,2.42.33,4.78.81,7.07.48,2.3,1.09,4.54,1.81,6.72.2.65.52,1.54.9,2.72.42,1.28.93,2.34,1.53,3.48.6,1.14,1.21,2.08,1.79,2.97.7,1.09,2.68,3.34,3.26,3.32.86-.02.66-3.67.7-6.77.06-4.07.2-8.14.34-12.27.12-3.4.32-6.78.6-10.15.11-1.23,1.04-2.18,2.17-2.23,10.89-.47,21.7-.98,32.42-1.54,10.62-.56,21.29-1.21,31.99-1.96,1.24-.09,2.33.96,2.42,2.33.06,1.05.12,2.06.17,3.03.09,1.7.15,3.21.18,4.52.07,3.19-.02,6.3-.28,9.33-.27,3.03-.43,6.1-.56,9.28-.07,1.54-.29,5.42.33,5.63.91.31,2.37-4.99,3.13-7.32.75-2.32,1.41-5.11,1.95-8.37.55-3.25.97-6.61,1.28-10.08.21-2.47.38-4.65.51-6.53.06-.83.5-1.54,1.12-1.93.28-.17.6-.29.94-.32.1-.01.2-.02.31-.03.81-.07,1.57-.23,2.28-.46.57-.19,1.03-.47,1.44-.79.11-.08.23-.15.33-.24.47-.45.69-1.06.67-1.83-.04-1.87-.77-3.31-2.18-4.32ZM97.66,64.99c-4.76-.07-9.5.11-14.21.55-5.59.51-11.17,1.16-16.74,1.95-5.58.79-11.16,1.66-16.73,2.62-4.6.78-9.18,1.48-13.75,2.08-1.47.19-2.73-1.21-2.51-2.82,1.1-7.91,2.86-15.6,5.3-23.08,2.77-8.47,7.18-16.46,13.22-23.96,2.42-3.03,5.11-5.48,8.08-7.36,2.97-1.89,6.08-2.87,9.33-2.94,4.97-.12,9.24,1.49,12.81,4.81,3.56,3.33,6.56,7.57,8.97,12.73,2.42,5.17,4.32,10.89,5.71,17.18,1.17,5.28,2.09,10.43,2.78,15.45.21,1.5-.88,2.81-2.26,2.79Z"/>
  </g>
  <g id="The_Fire" data-name="The Fire">
    <path class="cls-3" d="M97.14,46.75c-1.39-6.29-3.29-12.01-5.71-17.18-2.41-5.16-5.41-9.4-8.97-12.73-3.57-3.32-7.84-4.93-12.81-4.81-3.25.07-6.36,1.05-9.33,2.94-2.97,1.88-5.66,4.33-8.08,7.36-6.04,7.5-10.45,15.49-13.22,23.96-2.44,7.48-4.2,15.17-5.3,23.08-.22,1.61,1.04,3.01,2.51,2.82,4.57-.6,9.15-1.3,13.75-2.08,5.57-.96,11.15-1.83,16.73-2.62,5.57-.79,11.15-1.44,16.74-1.95,4.71-.44,9.45-.62,14.21-.55,1.38.02,2.47-1.29,2.26-2.79-.69-5.02-1.61-10.17-2.78-15.45ZM49.84,49.99c-.23-.04-.43-.16-.59-.36-.33-.39-.45-.86-.36-1.4.09-.54.36-1.05.79-1.52.43-.47.9-.78,1.41-.93.51-.15.93-.02,1.26.37.35.41.45.89.31,1.45-.14.56-.4,1.05-.79,1.47-.19.21-.41.39-.63.55-.23.16-.46.27-.7.33-.24.06-.47.07-.7.03ZM82.15,57.05c-.14.56-.4,1.05-.79,1.47-.19.21-.41.39-.63.55-.23.16-.46.27-.7.33-.24.06-.47.07-.7.03-.23-.04-.43-.16-.59-.36-.33-.39-.45-.86-.36-1.4.09-.54.36-1.05.79-1.52.43-.47.9-.78,1.41-.93.51-.15.93-.02,1.26.37.35.41.45.89.31,1.45ZM87.18,46.53c-5.36,3.38-10.82,7.71-14.24,13.55-.54.92-2.25,5.14-2.63,5.34l-14.11,2.19c-4.14-1.36-6.04-7.73-4.7-12.02.81-2.57,3.69-4.11,4.15-6.58.61-3.28-1.75-6.3-2.59-9.27,3.08.94,6.13,3.89,7.73,7,1.66,3.21,1.55,5.51,1.86,9.08.2.19,1.04-.71,1.2-.95.82-1.14,1.93-3.44,1.95-4.93.06-3.43-3.21-6.82-4.71-9.69-2.02-3.85-3.5-8.26-1.45-12.46,1.23-2.52,6.17-8.07,8.23-10.15.31-.31.57-.68,1.03-.67.81.75-.9,8.83-1.04,10.43-.48,5.5.25,8.84,3.75,12.82,4.49,5.11,8.22,3.72,12.11-1.27.66-.85,3.82-7,4.74-6.22-.41,4.76-2.84,8.83-1.29,13.8Z"/>
    <path class="cls-2" d="M97.14,46.75c-1.39-6.29-3.29-12.01-5.71-17.18-2.41-5.16-5.41-9.4-8.97-12.73-3.57-3.32-7.84-4.93-12.81-4.81-3.25.07-6.36,1.05-9.33,2.94-2.97,1.88-5.66,4.33-8.08,7.36-6.04,7.5-10.45,15.49-13.22,23.96-2.44,7.48-4.2,15.17-5.3,23.08-.22,1.61,1.04,3.01,2.51,2.82,4.57-.6,9.15-1.3,13.75-2.08,5.57-.96,11.15-1.83,16.73-2.62,5.57-.79,11.15-1.44,16.74-1.95,4.71-.44,9.45-.62,14.21-.55,1.38.02,2.47-1.29,2.26-2.79-.69-5.02-1.61-10.17-2.78-15.45Z"/>
    <path class="cls-6" d="M80.58,55.24c-.51.15-.98.45-1.41.93-.43.47-.69.98-.79,1.52-.09.54.03,1.01.36,1.4.17.2.36.31.59.36.23.04.46.03.7-.03.24-.06.47-.17.7-.33.23-.16.44-.34.63-.55.39-.42.65-.91.79-1.47.14-.56.03-1.04-.31-1.45-.33-.39-.75-.51-1.26-.37Z"/>
    <path class="cls-6" d="M51.87,49.08c.39-.42.65-.91.79-1.47.14-.56.03-1.04-.31-1.45-.33-.39-.75-.51-1.26-.37-.51.15-.98.45-1.41.93-.43.47-.69.98-.79,1.52-.09.54.02,1.01.36,1.4.17.2.36.31.59.36.23.04.46.03.7-.03.24-.06.47-.17.7-.33.23-.16.44-.34.63-.55Z"/>
    <path class="cls-6" d="M83.72,38.96c-3.89,4.99-7.63,6.38-12.11,1.27-3.5-3.99-4.23-7.33-3.75-12.82.14-1.6,1.84-9.68,1.04-10.43-.47-.01-.73.36-1.03.67-2.06,2.07-7,7.63-8.23,10.15-2.06,4.2-.58,8.61,1.45,12.46,1.5,2.86,4.77,6.25,4.71,9.69-.02,1.48-1.13,3.79-1.95,4.93-.17.23-1,1.14-1.2.95-.3-3.57-.19-5.87-1.86-9.08-1.61-3.11-4.66-6.06-7.73-7,.85,2.98,3.2,6,2.59,9.27-.46,2.47-3.35,4-4.15,6.58-1.34,4.29.56,10.66,4.7,12.02l14.11-2.19c.38-.2,2.08-4.42,2.63-5.34,3.42-5.83,8.89-10.17,14.24-13.55-1.55-4.96.88-9.04,1.29-13.8-.92-.78-4.08,5.37-4.74,6.22Z"/>
  </g>
</svg>